<svg width="756" height="331" viewBox="0 0 756 331" fill="none" xmlns="http://www.w3.org/2000/svg">
<path d="M136.464 90.9838C124.608 106.488 111.992 123.36 98.6161 141.6C85.2401 159.84 73.9921 178.536 64.8721 197.688H136.464V90.9838ZM203.04 7.99182V197.688H236.784V253.32H203.04V324H136.464V253.32H0.120117V203.616C6.80812 190.24 15.1681 175.192 25.2001 158.472C35.2321 141.448 46.3281 124.12 58.4881 106.488C70.9521 88.5518 84.0241 71.0718 97.7041 54.0478C111.384 37.0238 125.064 21.6718 138.744 7.99182H203.04Z" fill="#F2F2F2" fill-opacity="0.5"></path>
<path d="M493.676 165.312C493.676 218.512 483.492 259.4 463.124 287.976C443.06 316.248 415.244 330.384 379.676 330.384C344.108 330.384 316.14 316.248 295.772 287.976C275.708 259.4 265.676 218.512 265.676 165.312C265.676 138.864 268.26 115.456 273.428 95.0878C278.9 74.7198 286.652 57.5438 296.684 43.5598C306.716 29.5758 318.724 18.9358 332.708 11.6398C346.692 4.3438 362.348 0.695801 379.676 0.695801C415.244 0.695801 443.06 14.9838 463.124 43.5598C483.492 71.8318 493.676 112.416 493.676 165.312ZM424.364 165.312C424.364 149.504 423.604 135.216 422.084 122.448C420.564 109.376 418.132 98.1278 414.788 88.7038C411.444 79.2798 406.884 71.9838 401.108 66.8158C395.332 61.6478 388.188 59.0638 379.676 59.0638C371.164 59.0638 364.02 61.6478 358.244 66.8158C352.772 71.9838 348.212 79.2798 344.564 88.7038C341.22 98.1278 338.788 109.376 337.268 122.448C335.748 135.216 334.988 149.504 334.988 165.312C334.988 181.12 335.748 195.56 337.268 208.632C338.788 221.704 341.22 232.952 344.564 242.376C348.212 251.8 352.772 259.096 358.244 264.264C364.02 269.432 371.164 272.016 379.676 272.016C388.188 272.016 395.332 269.432 401.108 264.264C406.884 259.096 411.444 251.8 414.788 242.376C418.132 232.952 420.564 221.704 422.084 208.632C423.604 195.56 424.364 181.12 424.364 165.312Z" fill="#F2F2F2" fill-opacity="0.5"></path>
<path d="M654.808 90.9838C642.952 106.488 630.336 123.36 616.96 141.6C603.584 159.84 592.336 178.536 583.216 197.688H654.808V90.9838ZM721.384 7.99182V197.688H755.128V253.32H721.384V324H654.808V253.32H518.464V203.616C525.152 190.24 533.512 175.192 543.544 158.472C553.576 141.448 564.672 124.12 576.832 106.488C589.296 88.5518 602.368 71.0718 616.048 54.0478C629.728 37.0238 643.408 21.6718 657.088 7.99182H721.384Z" fill="#F2F2F2" fill-opacity="0.5"></path>
</svg>
