<svg width="756" height="331" fill="none" xmlns="http://www.w3.org/2000/svg"><path d="M136.464 90.984c-11.856 15.504-24.472 32.376-37.848 50.616-13.376 18.24-24.624 36.936-33.744 56.088h71.592V90.984ZM203.04 7.992v189.696h33.744v55.632H203.04V324h-66.576v-70.68H.12v-49.704c6.688-13.376 15.048-28.424 25.08-45.144 10.032-17.024 21.128-34.352 33.288-51.984a940.534 940.534 0 0 1 39.216-52.44c13.68-17.024 27.36-32.376 41.04-46.056h64.296ZM493.676 165.312c0 53.2-10.184 94.088-30.552 122.664-20.064 28.272-47.88 42.408-83.448 42.408-35.568 0-63.536-14.136-83.904-42.408-20.064-28.576-30.096-69.464-30.096-122.664 0-26.448 2.584-49.856 7.752-70.224 5.472-20.368 13.224-37.544 23.256-51.528 10.032-13.984 22.04-24.624 36.024-31.92C346.692 4.344 362.348.696 379.676.696c35.568 0 63.384 14.288 83.448 42.864 20.368 28.272 30.552 68.856 30.552 121.752Zm-69.312 0c0-15.808-.76-30.096-2.28-42.864-1.52-13.072-3.952-24.32-7.296-33.744-3.344-9.424-7.904-16.72-13.68-21.888-5.776-5.168-12.92-7.752-21.432-7.752-8.512 0-15.656 2.584-21.432 7.752-5.472 5.168-10.032 12.464-13.68 21.888-3.344 9.424-5.776 20.672-7.296 33.744-1.52 12.768-2.28 27.056-2.28 42.864 0 15.808.76 30.248 2.28 43.32 1.52 13.072 3.952 24.32 7.296 33.744 3.648 9.424 8.208 16.72 13.68 21.888 5.776 5.168 12.92 7.752 21.432 7.752 8.512 0 15.656-2.584 21.432-7.752 5.776-5.168 10.336-12.464 13.68-21.888 3.344-9.424 5.776-20.672 7.296-33.744 1.52-13.072 2.28-27.512 2.28-43.32ZM654.808 90.984c-11.856 15.504-24.472 32.376-37.848 50.616-13.376 18.24-24.624 36.936-33.744 56.088h71.592V90.984Zm66.576-82.992v189.696h33.744v55.632h-33.744V324h-66.576v-70.68H518.464v-49.704c6.688-13.376 15.048-28.424 25.08-45.144 10.032-17.024 21.128-34.352 33.288-51.984a940.534 940.534 0 0 1 39.216-52.44c13.68-17.024 27.36-32.376 41.04-46.056h64.296Z" fill="#F2F2F2" fill-opacity=".5"/></svg>