<svg width="24" height="24" fill="none" xmlns="http://www.w3.org/2000/svg"><path fill-rule="evenodd" clip-rule="evenodd" d="M3.596 10.718c2.592.215 5.074-.305 7.129-1.48a23.546 23.546 0 0 0-3.609-4.196 8.5 8.5 0 0 0-3.52 5.676Zm3.098-7.78A10.495 10.495 0 0 0 1.5 12c0 5.799 4.701 10.5 10.5 10.5S22.5 17.799 22.5 12 17.799 1.5 12 1.5a10.452 10.452 0 0 0-5.306 1.437v.001ZM8.98 4.051a25.709 25.709 0 0 1 3.378 4.032 10.189 10.189 0 0 0 2.82-3.97A8.476 8.476 0 0 0 12 3.5a8.48 8.48 0 0 0-3.019.552l-.001-.001Zm7.961 1.032A12.1 12.1 0 0 1 13.428 9.8c.348.609.671 1.232.968 1.867 1.883-.733 3.92-1.071 6.015-.898a8.497 8.497 0 0 0-3.469-5.685l-.001-.001Zm3.523 7.698c-1.822-.186-3.62.09-5.292.731a23.239 23.239 0 0 1 1.363 5.677 8.5 8.5 0 0 0 3.928-6.408h.001Zm-5.856 7.31a20.964 20.964 0 0 0-1.249-5.715c-2.118 1.217-3.936 3.036-5.199 5.209A8.464 8.464 0 0 0 12 20.5a8.49 8.49 0 0 0 2.609-.408l-.001-.001Zm-8.115-1.616c1.464-2.474 3.59-4.572 6.092-5.959a24.01 24.01 0 0 0-.81-1.577c-2.414 1.392-5.3 2.004-8.246 1.779a8.483 8.483 0 0 0 2.964 5.757Z" fill="#2B2E4A"/></svg>