<svg width="32" height="32" fill="none" xmlns="http://www.w3.org/2000/svg"><path d="M8.667 13.334c-.298 0-.583.045-.867.086.092-.31.187-.624.339-.906.152-.411.389-.767.625-1.126.197-.388.545-.65.801-.982.268-.323.634-.538.923-.806.284-.28.656-.42.952-.617.31-.177.579-.373.867-.467l.718-.296.632-.262-.646-2.584-.796.192c-.255.064-.566.138-.919.228-.361.066-.747.249-1.176.416-.424.189-.915.317-1.37.62-.46.292-.989.534-1.455.924-.452.4-.998.749-1.4 1.26-.44.477-.875.978-1.212 1.549-.391.544-.656 1.141-.936 1.732-.254.59-.458 1.194-.624 1.781a16.095 16.095 0 0 0-.512 3.25 16.61 16.61 0 0 0 .037 2.329c.02.272.057.536.084.718l.033.224.035-.008a6 6 0 1 0 5.867-7.255Zm14.666 0c-.297 0-.582.045-.866.086.092-.31.186-.624.338-.906.152-.411.39-.767.626-1.126.197-.388.545-.65.801-.982.268-.323.633-.538.923-.806.284-.28.656-.42.952-.617.309-.177.578-.373.866-.467l.719-.296.632-.262-.647-2.584-.796.192c-.254.064-.565.138-.918.228-.362.066-.747.249-1.176.416-.423.19-.915.317-1.371.622-.459.29-.988.534-1.455.923-.452.401-.997.75-1.4 1.259-.44.477-.874.978-1.212 1.549-.39.544-.656 1.141-.936 1.732-.253.59-.457 1.194-.624 1.781a16.097 16.097 0 0 0-.512 3.25c-.045.957-.018 1.753.038 2.329.02.272.057.536.084.718l.033.224.035-.008a6 6 0 1 0 5.866-7.255Z" fill="#E91E63"/></svg>