<svg width="32" height="32" viewBox="0 0 32 32" fill="none" xmlns="http://www.w3.org/2000/svg">
<path d="M8.66666 13.3335C8.36933 13.3335 8.084 13.3789 7.8 13.4202C7.892 13.1109 7.98666 12.7962 8.13866 12.5135C8.29066 12.1029 8.528 11.7469 8.764 11.3882C8.96133 11.0002 9.30933 10.7375 9.56533 10.4055C9.83333 10.0829 10.1987 9.8682 10.488 9.6002C10.772 9.3202 11.144 9.1802 11.44 8.98287C11.7493 8.80554 12.0187 8.60953 12.3067 8.5162L13.0253 8.2202L13.6573 7.95753L13.0107 5.37354L12.2147 5.56553C11.96 5.62953 11.6493 5.7042 11.296 5.79353C10.9347 5.8602 10.5493 6.04287 10.12 6.20954C9.696 6.39887 9.20533 6.52687 8.74933 6.83087C8.29066 7.12154 7.76133 7.3642 7.29466 7.75354C6.84266 8.15487 6.29733 8.50287 5.89466 9.01354C5.45466 9.49087 5.02 9.9922 4.68266 10.5629C4.292 11.1069 4.02666 11.7042 3.74666 12.2949C3.49333 12.8855 3.28933 13.4895 3.12266 14.0762C2.80666 15.2522 2.66533 16.3695 2.61066 17.3255C2.56533 18.2829 2.592 19.0789 2.648 19.6549C2.668 19.9269 2.70533 20.1909 2.732 20.3735L2.76533 20.5975L2.8 20.5895C3.03714 21.6973 3.58307 22.7153 4.37461 23.5258C5.16616 24.3362 6.17098 24.9061 7.27285 25.1693C8.37471 25.4325 9.52859 25.3785 10.601 25.0133C11.6734 24.6482 12.6205 23.9869 13.3328 23.1059C14.0451 22.225 14.4934 21.1604 14.6259 20.0353C14.7584 18.9102 14.5696 17.7705 14.0815 16.7482C13.5934 15.7259 12.8258 14.8627 11.8675 14.2584C10.9093 13.6541 9.79954 13.3335 8.66666 13.3335ZM23.3333 13.3335C23.036 13.3335 22.7507 13.3789 22.4667 13.4202C22.5587 13.1109 22.6533 12.7962 22.8053 12.5135C22.9573 12.1029 23.1947 11.7469 23.4307 11.3882C23.628 11.0002 23.976 10.7375 24.232 10.4055C24.5 10.0829 24.8653 9.8682 25.1547 9.6002C25.4387 9.3202 25.8107 9.1802 26.1067 8.98287C26.416 8.80554 26.6853 8.60953 26.9733 8.5162L27.692 8.2202L28.324 7.95753L27.6773 5.37354L26.8813 5.56553C26.6267 5.62953 26.316 5.7042 25.9627 5.79353C25.6013 5.8602 25.216 6.04287 24.7867 6.20954C24.364 6.4002 23.872 6.52687 23.416 6.8322C22.9573 7.12287 22.428 7.36553 21.9613 7.75487C21.5093 8.1562 20.964 8.5042 20.5613 9.01354C20.1213 9.49087 19.6867 9.9922 19.3493 10.5629C18.9587 11.1069 18.6933 11.7042 18.4133 12.2949C18.16 12.8855 17.956 13.4895 17.7893 14.0762C17.4733 15.2522 17.332 16.3695 17.2773 17.3255C17.232 18.2829 17.2587 19.0789 17.3147 19.6549C17.3347 19.9269 17.372 20.1909 17.3987 20.3735L17.432 20.5975L17.4667 20.5895C17.7038 21.6973 18.2497 22.7153 19.0413 23.5258C19.8328 24.3362 20.8377 24.9061 21.9395 25.1693C23.0414 25.4325 24.1953 25.3785 25.2677 25.0133C26.3401 24.6482 27.2872 23.9869 27.9995 23.1059C28.7117 22.225 29.1601 21.1604 29.2926 20.0353C29.425 18.9102 29.2363 17.7705 28.7482 16.7482C28.26 15.7259 27.4924 14.8627 26.5342 14.2584C25.576 13.6541 24.4662 13.3335 23.3333 13.3335Z" fill="#E91E63"/>
</svg>
