<svg width="24" height="24" viewBox="0 0 24 24" fill="none" xmlns="http://www.w3.org/2000/svg">
<path fill-rule="evenodd" clip-rule="evenodd" d="M3.596 10.718C6.188 10.933 8.67 10.413 10.725 9.23801C9.69114 7.70233 8.47977 6.29394 7.116 5.04201C6.17638 5.70137 5.38006 6.54423 4.77508 7.51976C4.17011 8.49528 3.76902 9.58324 3.596 10.718V10.718ZM6.694 2.93801C5.11246 3.86359 3.80084 5.18713 2.8896 6.77698C1.97836 8.36682 1.49927 10.1675 1.5 12C1.5 17.799 6.201 22.5 12 22.5C17.799 22.5 22.5 17.799 22.5 12C22.5 6.20101 17.799 1.50001 12 1.50001C10.1348 1.49699 8.30277 1.99315 6.694 2.93701V2.93801ZM8.98 4.05101C10.2409 5.27598 11.3728 6.62705 12.358 8.08301C13.6051 7.00706 14.5727 5.64482 15.178 4.11301C14.1679 3.70645 13.0889 3.49832 12 3.50001C10.9685 3.49886 9.94538 3.68593 8.981 4.05201L8.98 4.05101ZM16.941 5.08301C16.1758 6.92034 14.9691 8.54053 13.428 9.80001C13.776 10.409 14.099 11.032 14.396 11.667C16.279 10.934 18.316 10.596 20.411 10.769C20.2454 9.63664 19.8528 8.54939 19.2567 7.57249C18.6606 6.59558 17.8733 5.74916 16.942 5.08401L16.941 5.08301ZM20.464 12.781C18.642 12.595 16.844 12.871 15.172 13.512C15.8632 15.3395 16.3211 17.2469 16.535 19.189C17.6373 18.4936 18.5648 17.554 19.246 16.4429C19.9271 15.3317 20.3435 14.0788 20.463 12.781H20.464ZM14.608 20.091C14.4608 18.137 14.0404 16.2133 13.359 14.376C11.241 15.593 9.423 17.412 8.16 19.585C9.34999 20.1884 10.6658 20.5019 12 20.5C12.91 20.5 13.787 20.357 14.609 20.092L14.608 20.091ZM6.493 18.475C7.957 16.001 10.083 13.903 12.585 12.516C12.3345 11.9805 12.0643 11.4545 11.775 10.939C9.361 12.331 6.475 12.943 3.529 12.718C3.71692 14.9534 4.78265 17.0234 6.493 18.475V18.475Z" fill="#2B2E4A"/>
</svg>
